<svg width="1600" height="900" viewBox="0 0 1600 900" fill="none" xmlns="http://www.w3.org/2000/svg">
  <rect width="1600" height="900" fill="#F3F3F3"/>
  <rect x="58" y="58" width="1484" height="784" rx="28" fill="#111111"/>
  <rect x="96" y="96" width="1408" height="58" rx="18" fill="#1A1A1A"/>
  <circle cx="135" cy="125" r="9" fill="#FF3B00"/>
  <circle cx="167" cy="125" r="9" fill="#F3F3F3" fill-opacity="0.55"/>
  <circle cx="199" cy="125" r="9" fill="#F3F3F3" fill-opacity="0.25"/>
  <text x="1290" y="132" fill="#F3F3F3" fill-opacity="0.68" font-family="Oswald, Arial, sans-serif" font-size="22" letter-spacing="4">ROBOT FLOW LABS // OPEN SYSTEM</text>

  <text x="116" y="248" fill="#FF3B00" font-family="Oswald, Arial, sans-serif" font-size="28" letter-spacing="7">MCP-NATIVE ROBOTICS RUNTIME</text>
  <text x="116" y="365" fill="#F3F3F3" font-family="Oswald, Arial, sans-serif" font-size="126" font-weight="700" letter-spacing="2">ROB OROS</text>
  <text x="121" y="451" fill="#F3F3F3" fill-opacity="0.75" font-family="Arial, sans-serif" font-size="35">
    Universal control plane for ROS2 robots, agent tooling, and LeRobot data pipelines.
  </text>
  <text x="121" y="504" fill="#9CA3AF" font-family="Arial, sans-serif" font-size="30">
    Claude Code. Cursor. Codex. Custom apps. One runtime. Thin adapters. Safe execution.
  </text>

  <rect x="116" y="580" width="348" height="118" rx="22" fill="#FF3B00"/>
  <text x="142" y="630" fill="#111111" font-family="Oswald, Arial, sans-serif" font-size="24" letter-spacing="5">STACK STATUS</text>
  <text x="142" y="675" fill="#111111" font-family="Oswald, Arial, sans-serif" font-size="44" font-weight="700">PHASE 01 // LIVE</text>

  <rect x="492" y="580" width="288" height="118" rx="22" fill="#1A1A1A" stroke="#303030"/>
  <text x="520" y="630" fill="#F3F3F3" fill-opacity="0.7" font-family="Oswald, Arial, sans-serif" font-size="24" letter-spacing="4">PRIMARY BUS</text>
  <text x="520" y="675" fill="#F3F3F3" font-family="Oswald, Arial, sans-serif" font-size="42" font-weight="700">MCP + ROSBRIDGE</text>

  <rect x="808" y="580" width="288" height="118" rx="22" fill="#1A1A1A" stroke="#303030"/>
  <text x="836" y="630" fill="#F3F3F3" fill-opacity="0.7" font-family="Oswald, Arial, sans-serif" font-size="24" letter-spacing="4">LEARNING BUS</text>
  <text x="836" y="675" fill="#F3F3F3" font-family="Oswald, Arial, sans-serif" font-size="42" font-weight="700">LEROBOT READY</text>

  <rect x="1124" y="580" width="320" height="118" rx="22" fill="#1A1A1A" stroke="#303030"/>
  <text x="1152" y="630" fill="#F3F3F3" fill-opacity="0.7" font-family="Oswald, Arial, sans-serif" font-size="24" letter-spacing="4">BRAND</text>
  <text x="1152" y="675" fill="#F3F3F3" font-family="Oswald, Arial, sans-serif" font-size="42" font-weight="700">ROBOT FLOW LABS</text>

  <path d="M1023 237H1454V508H1023V237Z" fill="#0F0F0F" stroke="#2E2E2E"/>
  <rect x="1061" y="275" width="355" height="40" rx="20" fill="#202020"/>
  <text x="1091" y="302" fill="#F3F3F3" fill-opacity="0.75" font-family="Oswald, Arial, sans-serif" font-size="19" letter-spacing="4">SYSTEM MAP</text>

  <rect x="1080" y="344" width="112" height="58" rx="14" fill="#FF3B00"/>
  <text x="1111" y="379" fill="#111111" font-family="Oswald, Arial, sans-serif" font-size="24" font-weight="700">AGENTS</text>

  <rect x="1236" y="344" width="164" height="58" rx="14" fill="#1A1A1A" stroke="#444"/>
  <text x="1265" y="380" fill="#F3F3F3" font-family="Oswald, Arial, sans-serif" font-size="23" font-weight="700">MCP LAYER</text>

  <rect x="1080" y="430" width="320" height="58" rx="14" fill="#1A1A1A" stroke="#444"/>
  <text x="1138" y="466" fill="#F3F3F3" font-family="Oswald, Arial, sans-serif" font-size="24" font-weight="700">RUNTIME + SAFETY + DATA</text>

  <path d="M1198 372H1230" stroke="#FF3B00" stroke-width="4"/>
  <path d="M1240 402V420" stroke="#FF3B00" stroke-width="4"/>

  <text x="116" y="780" fill="#9CA3AF" font-family="Oswald, Arial, sans-serif" font-size="22" letter-spacing="5">OPEN SOURCE // APACHE-2.0 // ROBOTFLOWLABS.COM</text>
</svg>

